<svg width="512" height="512" viewBox="0 0 512 512" fill="none" xmlns="http://www.w3.org/2000/svg">
<rect width="512" height="512" fill="#0E0E0E"/>
<path fill-rule="evenodd" clip-rule="evenodd" d="M136.409 276.961C133.573 223.622 145.128 168.09 182.17 129.607C201.193 109.843 225.228 93.9347 252.318 96.2187C275.15 98.1439 285.077 125.627 287.361 148.426C289.025 165.028 289.772 186.109 287.072 208.195C282.882 242.467 293.356 282.073 329.856 282.073C349.267 282.073 361.104 290.249 368.023 302.253C398.765 355.593 334.93 415.322 273.369 415.987C222.897 416.532 166.825 399.899 144.393 331.194C139.816 317.173 137.487 297.229 136.409 276.961ZM357.36 328.933C357.36 344.673 350.966 357.433 333.752 357.433C315.555 357.433 310.145 344.673 310.145 328.933C310.145 313.193 316.047 300.433 333.752 300.433C349.491 300.433 357.36 313.193 357.36 328.933ZM257.581 393.962C265.903 393.962 272.65 387.246 272.65 378.962C272.65 370.677 265.903 363.962 257.581 363.962C249.259 363.962 242.512 370.677 242.512 378.962C242.512 387.246 249.259 393.962 257.581 393.962ZM213.483 341.792C213.483 350.077 206.736 356.792 198.414 356.792C190.092 356.792 183.345 350.077 183.345 341.792C183.345 333.508 190.092 326.792 198.414 326.792C206.736 326.792 213.483 333.508 213.483 341.792ZM175.733 292.234C184.055 292.234 190.802 285.519 190.802 277.234C190.802 268.95 184.055 262.234 175.733 262.234C167.411 262.234 160.664 268.95 160.664 277.234C160.664 285.519 167.411 292.234 175.733 292.234ZM199.677 209.742C199.677 218.027 192.93 224.742 184.608 224.742C176.286 224.742 169.539 218.027 169.539 209.742C169.539 201.458 176.286 194.742 184.608 194.742C192.93 194.742 199.677 201.458 199.677 209.742ZM217.15 163.119C225.472 163.119 232.219 156.403 232.219 148.119C232.219 139.835 225.472 133.119 217.15 133.119C208.828 133.119 202.082 139.835 202.082 148.119C202.082 156.403 208.828 163.119 217.15 163.119Z" fill="url(#paint0_linear_47_133)"/>
<defs>
<linearGradient id="paint0_linear_47_133" x1="341.01" y1="47.145" x2="-132.729" y2="644.886" gradientUnits="userSpaceOnUse">
<stop stop-color="white"/>
<stop offset="0.495146" stop-color="#EBEBEB" stop-opacity="0.87"/>
</linearGradient>
</defs>
</svg>
