<svg width="240" height="320" viewBox="0 0 240 320" fill="none" xmlns="http://www.w3.org/2000/svg">
<path fill-rule="evenodd" clip-rule="evenodd" d="M0.409049 180.961C-2.42673 127.622 9.12845 72.0902 46.17 33.6067C65.1928 13.8433 89.2284 -2.06527 116.318 0.218747C139.15 2.14388 149.077 29.6269 151.361 52.4265C153.025 69.0285 153.772 90.1089 151.072 112.195C146.882 146.467 157.356 186.073 193.856 186.073C213.267 186.073 225.104 194.249 232.023 206.253C262.765 259.593 198.93 319.322 137.369 319.987C86.8974 320.532 30.8245 303.899 8.39349 235.194C3.81598 221.173 1.48661 201.229 0.409049 180.961ZM221.36 232.933C221.36 248.673 214.966 261.433 197.752 261.433C179.555 261.433 174.145 248.673 174.145 232.933C174.145 217.193 180.047 204.433 197.752 204.433C213.491 204.433 221.36 217.193 221.36 232.933ZM121.581 297.961C129.903 297.961 136.65 291.246 136.65 282.961C136.65 274.677 129.903 267.961 121.581 267.961C113.259 267.961 106.512 274.677 106.512 282.961C106.512 291.246 113.259 297.961 121.581 297.961ZM77.4826 245.792C77.4826 254.076 70.7361 260.792 62.4139 260.792C54.0917 260.792 47.3452 254.076 47.3452 245.792C47.3452 237.508 54.0917 230.792 62.4139 230.792C70.7361 230.792 77.4826 237.508 77.4826 245.792ZM39.7331 196.234C48.0553 196.234 54.8018 189.519 54.8018 181.234C54.8018 172.95 48.0553 166.234 39.7331 166.234C31.4109 166.234 24.6644 172.95 24.6644 181.234C24.6644 189.519 31.4109 196.234 39.7331 196.234ZM63.6769 113.742C63.6769 122.026 56.9304 128.742 48.6082 128.742C40.286 128.742 33.5395 122.026 33.5395 113.742C33.5395 105.458 40.286 98.7422 48.6082 98.7422C56.9304 98.7422 63.6769 105.458 63.6769 113.742ZM81.1502 67.1189C89.4725 67.1189 96.2189 60.4032 96.2189 52.1189C96.2189 43.8346 89.4725 37.1189 81.1502 37.1189C72.828 37.1189 66.0815 43.8346 66.0815 52.1189C66.0815 60.4032 72.828 67.1189 81.1502 67.1189Z" fill="url(#paint0_linear_124_233)"/>
<path fill-rule="evenodd" clip-rule="evenodd" d="M0.409049 180.961C-2.42673 127.622 9.12845 72.0902 46.17 33.6067C65.1928 13.8433 89.2284 -2.06527 116.318 0.218747C139.15 2.14388 149.077 29.6269 151.361 52.4265C153.025 69.0285 153.772 90.1089 151.072 112.195C146.882 146.467 157.356 186.073 193.856 186.073C213.267 186.073 225.104 194.249 232.023 206.253C262.765 259.593 198.93 319.322 137.369 319.987C86.8974 320.532 30.8245 303.899 8.39349 235.194C3.81598 221.173 1.48661 201.229 0.409049 180.961ZM221.36 232.933C221.36 248.673 214.966 261.433 197.752 261.433C179.555 261.433 174.145 248.673 174.145 232.933C174.145 217.193 180.047 204.433 197.752 204.433C213.491 204.433 221.36 217.193 221.36 232.933ZM121.581 297.961C129.903 297.961 136.65 291.246 136.65 282.961C136.65 274.677 129.903 267.961 121.581 267.961C113.259 267.961 106.512 274.677 106.512 282.961C106.512 291.246 113.259 297.961 121.581 297.961ZM77.4826 245.792C77.4826 254.076 70.7361 260.792 62.4139 260.792C54.0917 260.792 47.3452 254.076 47.3452 245.792C47.3452 237.508 54.0917 230.792 62.4139 230.792C70.7361 230.792 77.4826 237.508 77.4826 245.792ZM39.7331 196.234C48.0553 196.234 54.8018 189.519 54.8018 181.234C54.8018 172.95 48.0553 166.234 39.7331 166.234C31.4109 166.234 24.6644 172.95 24.6644 181.234C24.6644 189.519 31.4109 196.234 39.7331 196.234ZM63.6769 113.742C63.6769 122.026 56.9304 128.742 48.6082 128.742C40.286 128.742 33.5395 122.026 33.5395 113.742C33.5395 105.458 40.286 98.7422 48.6082 98.7422C56.9304 98.7422 63.6769 105.458 63.6769 113.742ZM81.1502 67.1189C89.4725 67.1189 96.2189 60.4032 96.2189 52.1189C96.2189 43.8346 89.4725 37.1189 81.1502 37.1189C72.828 37.1189 66.0815 43.8346 66.0815 52.1189C66.0815 60.4032 72.828 67.1189 81.1502 67.1189Z" fill="url(#paint1_linear_124_233)"/>
<defs>
<linearGradient id="paint0_linear_124_233" x1="205.01" y1="-48.855" x2="-268.729" y2="548.886" gradientUnits="userSpaceOnUse">
<stop stop-color="white"/>
<stop offset="0.495146" stop-color="#EBEBEB" stop-opacity="0.87"/>
</linearGradient>
<linearGradient id="paint1_linear_124_233" x1="205.01" y1="-48.855" x2="-268.729" y2="548.886" gradientUnits="userSpaceOnUse">
<stop/>
<stop offset="0.890625" stop-color="#636363" stop-opacity="0.87"/>
</linearGradient>
</defs>
</svg>
