<svg width="240" height="320" viewBox="0 0 240 320" fill="none" xmlns="http://www.w3.org/2000/svg">
<path d="M46.1698 33.6064C65.1926 13.8431 89.2282 -2.06515 116.317 0.218725C139.15 2.14385 149.077 29.6271 151.361 52.4267C153.024 69.0286 153.772 90.1088 151.072 112.194C146.882 146.467 157.356 186.072 193.855 186.072C213.266 186.072 225.104 194.249 232.022 206.253C262.765 259.593 198.93 319.322 137.369 319.987C86.8975 320.533 30.8245 303.898 8.39343 235.193C3.816 221.173 1.48661 201.229 0.409053 180.961C-2.42672 127.622 9.12827 72.0899 46.1698 33.6064ZM121.581 267.962C113.259 267.962 106.513 274.678 106.513 282.962C106.513 291.246 113.259 297.962 121.581 297.962C129.903 297.962 136.649 291.246 136.649 282.962C136.649 274.678 129.903 267.962 121.581 267.962ZM197.752 204.433C180.046 204.433 174.144 217.193 174.144 232.933C174.144 248.673 179.555 261.432 197.752 261.433C214.966 261.433 221.36 248.673 221.36 232.933C221.36 217.192 213.49 204.433 197.752 204.433ZM62.4139 230.792C54.0917 230.792 47.3456 237.508 47.3456 245.792C47.3456 254.076 54.0917 260.792 62.4139 260.792C70.7361 260.792 77.4823 254.076 77.4823 245.792C77.4823 237.508 70.7361 230.792 62.4139 230.792ZM39.7333 166.234C31.4111 166.234 24.6639 172.95 24.6639 181.234C24.664 189.519 31.4111 196.234 39.7333 196.234C48.0553 196.234 54.8016 189.519 54.8016 181.234C54.8016 172.95 48.0554 166.234 39.7333 166.234ZM48.6083 98.7422C40.2861 98.7422 33.5389 105.458 33.5389 113.742C33.5389 122.026 40.2861 128.742 48.6083 128.742C56.9304 128.742 63.6766 122.026 63.6766 113.742C63.6766 105.458 56.9304 98.7423 48.6083 98.7422ZM81.1503 37.1191C72.828 37.1191 66.0809 43.8348 66.0809 52.1191C66.0811 60.4033 72.8281 67.1191 81.1503 67.1191C89.4723 67.119 96.2185 60.4032 96.2186 52.1191C96.2186 43.8349 89.4724 37.1192 81.1503 37.1191Z" fill="black"/>
</svg>
